<svg width="32" height="33" viewBox="0 0 32 33" fill="none" xmlns="http://www.w3.org/2000/svg">
<rect y="4" width="32" height="29" rx="14.5" fill="black"/>
<path d="M6.04 25V12.616H7.96V14.632H8.056C8.2 14.312 8.36 14.016 8.536 13.744C8.728 13.456 8.952 13.208 9.208 13C9.48 12.792 9.792 12.632 10.144 12.52C10.496 12.392 10.912 12.328 11.392 12.328C12.208 12.328 12.96 12.528 13.648 12.928C14.336 13.312 14.848 13.952 15.184 14.848H15.232C15.456 14.176 15.872 13.592 16.48 13.096C17.104 12.584 17.944 12.328 19 12.328C20.264 12.328 21.248 12.744 21.952 13.576C22.672 14.392 23.032 15.552 23.032 17.056V25H21.112V17.392C21.112 16.288 20.896 15.456 20.464 14.896C20.032 14.336 19.344 14.056 18.4 14.056C18.016 14.056 17.648 14.104 17.296 14.2C16.96 14.296 16.656 14.44 16.384 14.632C16.112 14.824 15.896 15.072 15.736 15.376C15.576 15.664 15.496 16.008 15.496 16.408V25H13.576V17.392C13.576 16.288 13.36 15.456 12.928 14.896C12.496 14.336 11.824 14.056 10.912 14.056C10.528 14.056 10.16 14.104 9.808 14.2C9.456 14.296 9.144 14.44 8.872 14.632C8.6 14.824 8.376 15.072 8.2 15.376C8.04 15.664 7.96 16.008 7.96 16.408V25H6.04ZM28.2171 25.288C27.7051 25.288 27.3291 25.16 27.0891 24.904C26.8651 24.648 26.7531 24.312 26.7531 23.896V23.584C26.7531 23.168 26.8651 22.832 27.0891 22.576C27.3291 22.32 27.7051 22.192 28.2171 22.192C28.7291 22.192 29.0971 22.32 29.3211 22.576C29.5611 22.832 29.6811 23.168 29.6811 23.584V23.896C29.6811 24.312 29.5611 24.648 29.3211 24.904C29.0971 25.16 28.7291 25.288 28.2171 25.288Z" fill="white"/>
</svg>
